<?xml version="1.0" encoding="UTF-8" standalone="no"?>
<svg
   xmlns:dc="http://purl.org/dc/elements/1.1/"
   xmlns:cc="http://creativecommons.org/ns#"
   xmlns:rdf="http://www.w3.org/1999/02/22-rdf-syntax-ns#"
   xmlns:svg="http://www.w3.org/2000/svg"
   xmlns="http://www.w3.org/2000/svg"
   viewBox="0 0 1066.6667 446.66666"
   height="446.66666"
   width="1066.6667"
   xml:space="preserve"
   id="svg2"
   version="1.1"><metadata
     id="metadata8"><rdf:RDF><cc:Work
         rdf:about=""><dc:format>image/svg+xml</dc:format><dc:type
           rdf:resource="http://purl.org/dc/dcmitype/StillImage" /></cc:Work></rdf:RDF></metadata><defs
     id="defs6"><clipPath
       id="clipPath18"
       clipPathUnits="userSpaceOnUse"><path
         id="path16"
         d="M 0,335 H 800 V 0 H 0 Z" /></clipPath></defs><g
     transform="matrix(1.3333333,0,0,-1.3333333,0,446.66667)"
     id="g10"><g
       id="g12"><g
         clip-path="url(#clipPath18)"
         id="g14"><g
           transform="translate(689.5488,207.9388)"
           id="g20"><path
             id="path22"
             style="fill:#0a3ef3;fill-opacity:1;fill-rule:nonzero;stroke:none"
             d="m 0,0 v -17.31 l -15.603,-0.681 v -41.811 l -22.429,-0.98 v 41.812 l -10.24,-0.448 v 17.309 l 10.24,0.448 v 2.926 c 0,17.675 13.53,25.214 25.964,25.757 6.948,0.303 13.653,-1.597 18.163,-5.788 L -0.731,7.404 C -3.169,9.37 -5.973,10.1 -8.899,9.972 -12.434,9.818 -15.603,7.486 -15.603,2.244 v -2.926 z m -53.668,-19.615 -15.603,-0.681 v -41.811 l -22.43,-0.981 v 41.811 l -10.239,-0.446 v 17.31 l 10.239,0.446 v 2.925 c 0,17.676 13.531,25.216 25.965,25.757 6.948,0.304 13.653,-1.596 18.163,-5.786 L -54.399,5.098 c -2.438,1.967 -5.242,2.696 -8.168,2.569 -3.535,-0.154 -6.704,-2.486 -6.704,-7.728 v -2.926 l 15.603,0.682 z m -85.084,-46.991 c -17.31,-0.755 -34.375,8.007 -34.375,29.949 0,22.307 16.943,32.312 34.375,33.074 17.797,0.778 34.376,-8.129 34.376,-30.071 0,-21.942 -17.432,-32.21 -34.376,-32.952 m -52.779,41.823 c -5.607,-0.245 -10.361,-3.865 -10.361,-11.789 V -67.9 l -22.43,-0.981 v 60.218 l 20.114,0.879 1.341,-6.523 c 3.169,5.745 8.777,8.428 14.627,8.682 6.095,0.267 11.947,-1.793 15.848,-5.766 l -9.021,-16.607 c -3.657,2.764 -6.339,3.381 -10.118,3.215 m -67.163,-46.94 c -7.68,-0.335 -13.409,1.853 -16.7,5.732 v -30.232 l -22.43,-0.979 v 85.329 l 19.992,0.872 0.975,-6.416 c 5.12,6.074 13.165,8.498 19.869,8.425 17.675,-0.326 27.55,-10.986 27.55,-30.002 0,-18.407 -11.702,-31.961 -29.256,-32.729 m -44.979,-0.623 -19.87,-0.868 -0.974,6.54 c -5.12,-6.196 -12.678,-8.721 -19.017,-8.876 -12.677,-0.431 -23.526,5.799 -23.526,27.253 v 33.399 l 22.429,0.981 v -33.278 c 0,-7.437 4.267,-9.81 8.412,-9.628 5.363,0.233 10.36,3.743 10.36,11.667 v 32.059 l 22.186,0.968 z m -77.167,35.631 c -3.657,2.766 -6.339,3.381 -10.117,3.216 -5.608,-0.244 -10.362,-3.866 -10.362,-11.79 v -31.328 l -22.429,-0.979 v 60.218 l 20.113,0.878 1.341,-6.522 c 3.169,5.745 8.777,8.426 14.628,8.682 6.095,0.266 11.946,-1.793 15.846,-5.767 z m -48.871,-41.137 -19.87,-0.867 -0.975,6.54 c -5.119,-6.197 -12.678,-8.722 -19.016,-8.876 -12.677,-0.432 -23.526,5.798 -23.526,27.252 v 33.4 l 22.429,0.98 V -52.7 c 0,-7.437 4.267,-9.811 8.411,-9.629 5.363,0.234 10.361,3.744 10.361,11.667 v 32.059 l 22.186,0.969 z m -70.008,-4.2 -19.065,-0.835 -0.678,8.105 c -5.057,-6.842 -14.679,-10.833 -22.561,-11.321 -0.885,-0.044 -1.762,-0.067 -2.625,-0.067 -10.214,0 -18.864,3.121 -25.148,9.095 -7.006,6.66 -10.71,16.664 -10.71,28.93 0,23.824 15.234,39.778 38.811,40.644 8.974,0.412 17.292,-2.906 22.127,-8.578 l 0.458,7.804 19.391,0.847 z M -602.82,19.044 V -122.62 L 24.36,-98.371 V 43.293 Z" /></g><g
           transform="translate(550.7971,184.8144)"
           id="g24"><path
             id="path26"
             style="fill:#183efa;fill-opacity:1;fill-rule:nonzero;stroke:none"
             d="m 0,0 c -7.924,-0.315 -12.434,-6.175 -12.434,-12.522 0,-6.348 4.51,-11.735 12.434,-11.419 7.557,0.301 12.434,5.729 12.434,12.411 C 12.434,-5.183 7.923,0.317 0,0" /></g><g
           transform="translate(425.735,180.6074)"
           id="g28"><path
             id="path30"
             style="fill:#183efa;fill-opacity:1;fill-rule:nonzero;stroke:none"
             d="m 0,0 c -7.557,-0.33 -12.068,-6.744 -12.068,-13.082 0,-7.314 4.145,-13.717 12.068,-13.37 6.704,0.293 12.068,5.403 12.068,13.814 C 12.068,-4.228 6.704,0.293 0,0" /></g><g
           transform="translate(689.5488,207.9388)"
           id="g32"><path
             id="path34"
             style="fill:#183efa;fill-opacity:1;fill-rule:nonzero;stroke:none"
             d="m 0,0 v -17.31 l -15.603,-0.681 v -41.811 l -22.429,-0.98 v 41.812 l -10.24,-0.448 v 17.309 l 10.24,0.448 v 2.926 c 0,17.675 13.53,25.214 25.964,25.757 6.948,0.303 13.653,-1.597 18.163,-5.788 L -0.731,7.404 C -3.169,9.37 -5.973,10.1 -8.899,9.972 -12.434,9.818 -15.603,7.486 -15.603,2.244 v -2.926 z m -53.668,-19.615 -15.603,-0.681 v -41.811 l -22.43,-0.981 v 41.811 l -10.239,-0.446 v 17.31 l 10.239,0.446 v 2.925 c 0,17.676 13.531,25.216 25.965,25.757 6.948,0.304 13.653,-1.596 18.163,-5.786 L -54.399,5.098 c -2.438,1.967 -5.242,2.696 -8.168,2.569 -3.535,-0.154 -6.704,-2.486 -6.704,-7.728 v -2.926 l 15.603,0.682 z m -85.084,-46.991 c -17.31,-0.755 -34.375,8.007 -34.375,29.949 0,22.307 16.943,32.312 34.375,33.074 17.797,0.778 34.376,-8.129 34.376,-30.071 0,-21.942 -17.432,-32.21 -34.376,-32.952 m -52.779,41.823 c -5.607,-0.245 -10.361,-3.865 -10.361,-11.789 V -67.9 l -22.43,-0.981 v 60.218 l 20.114,0.879 1.341,-6.523 c 3.169,5.745 8.777,8.428 14.627,8.682 6.095,0.267 11.947,-1.793 15.848,-5.766 l -9.021,-16.607 c -3.657,2.764 -6.339,3.381 -10.118,3.215 m -67.163,-46.94 c -7.68,-0.335 -13.409,1.853 -16.7,5.732 v -30.232 l -22.43,-0.979 v 85.329 l 19.992,0.872 0.975,-6.416 c 5.12,6.074 13.165,8.498 19.869,8.425 17.675,-0.326 27.55,-10.986 27.55,-30.002 0,-18.407 -11.702,-31.961 -29.256,-32.729 m -44.979,-0.623 -19.87,-0.868 -0.974,6.54 c -5.12,-6.196 -12.678,-8.721 -19.017,-8.876 -12.677,-0.431 -23.526,5.799 -23.526,27.253 v 33.399 l 22.429,0.981 v -33.278 c 0,-7.437 4.267,-9.81 8.412,-9.628 5.363,0.233 10.36,3.743 10.36,11.667 v 32.059 l 22.186,0.968 z m -77.167,35.631 c -3.657,2.766 -6.339,3.381 -10.117,3.216 -5.608,-0.244 -10.362,-3.866 -10.362,-11.79 v -31.328 l -22.429,-0.979 v 60.218 l 20.113,0.878 1.341,-6.522 c 3.169,5.745 8.777,8.426 14.628,8.682 6.095,0.266 11.946,-1.793 15.846,-5.767 z m -48.871,-41.137 -19.87,-0.867 -0.975,6.54 c -5.119,-6.197 -12.678,-8.722 -19.016,-8.876 -12.677,-0.432 -23.526,5.798 -23.526,27.252 v 33.4 l 22.429,0.98 V -52.7 c 0,-7.437 4.267,-9.811 8.411,-9.629 5.363,0.234 10.361,3.744 10.361,11.667 v 32.059 l 22.186,0.969 z m -70.008,-4.2 -19.065,-0.835 -0.678,8.105 c -5.057,-6.842 -14.679,-10.833 -22.561,-11.321 -0.885,-0.044 -1.762,-0.067 -2.625,-0.067 -10.214,0 -18.864,3.121 -25.148,9.095 -7.006,6.66 -10.71,16.664 -10.71,28.93 0,23.824 15.234,39.778 38.811,40.644 8.974,0.412 17.292,-2.906 22.127,-8.578 l 0.458,7.804 19.391,0.847 z M -602.82,19.044 V -122.62 L 24.36,-98.371 V 43.293 Z" /></g><g
           transform="translate(689.5488,207.9388)"
           id="g36"><path
             id="path38"
             style="fill:#183efa;fill-opacity:1;fill-rule:nonzero;stroke:none"
             d="m 0,0 v -17.31 l -15.603,-0.681 v -41.811 l -22.429,-0.98 v 41.812 l -10.24,-0.448 v 17.309 l 10.24,0.448 v 2.926 c 0,17.675 13.53,25.214 25.964,25.757 6.948,0.303 13.653,-1.597 18.163,-5.788 L -0.731,7.404 C -3.169,9.37 -5.973,10.1 -8.899,9.972 -12.434,9.818 -15.603,7.486 -15.603,2.244 v -2.926 z m -53.668,-19.615 -15.603,-0.681 v -41.811 l -22.43,-0.981 v 41.811 l -10.239,-0.446 v 17.31 l 10.239,0.446 v 2.925 c 0,17.676 13.531,25.216 25.965,25.757 6.948,0.304 13.653,-1.596 18.163,-5.786 L -54.399,5.098 c -2.438,1.967 -5.242,2.696 -8.168,2.569 -3.535,-0.154 -6.704,-2.486 -6.704,-7.728 v -2.926 l 15.603,0.682 z m -85.084,-46.991 c -17.31,-0.755 -34.375,8.007 -34.375,29.949 0,22.307 16.943,32.312 34.375,33.074 17.797,0.778 34.376,-8.129 34.376,-30.071 0,-21.942 -17.432,-32.21 -34.376,-32.952 m -52.779,41.823 c -5.607,-0.245 -10.361,-3.865 -10.361,-11.789 V -67.9 l -22.43,-0.981 v 60.218 l 20.114,0.879 1.341,-6.523 c 3.169,5.745 8.777,8.428 14.627,8.682 6.095,0.267 11.947,-1.793 15.848,-5.766 l -9.021,-16.607 c -3.657,2.764 -6.339,3.381 -10.118,3.215 m -67.163,-46.94 c -7.68,-0.335 -13.409,1.853 -16.7,5.732 v -30.232 l -22.43,-0.979 v 85.329 l 19.992,0.872 0.975,-6.416 c 5.12,6.074 13.165,8.498 19.869,8.425 17.675,-0.326 27.55,-10.986 27.55,-30.002 0,-18.407 -11.702,-31.961 -29.256,-32.729 m -44.979,-0.623 -19.87,-0.868 -0.974,6.54 c -5.12,-6.196 -12.678,-8.721 -19.017,-8.876 -12.677,-0.431 -23.526,5.799 -23.526,27.253 v 33.399 l 22.429,0.981 v -33.278 c 0,-7.437 4.267,-9.81 8.412,-9.628 5.363,0.233 10.36,3.743 10.36,11.667 v 32.059 l 22.186,0.968 z m -77.167,35.631 c -3.657,2.766 -6.339,3.381 -10.117,3.216 -5.608,-0.244 -10.362,-3.866 -10.362,-11.79 v -31.328 l -22.429,-0.979 v 60.218 l 20.113,0.878 1.341,-6.522 c 3.169,5.745 8.777,8.426 14.628,8.682 6.095,0.266 11.946,-1.793 15.846,-5.767 z m -48.871,-41.137 -19.87,-0.867 -0.975,6.54 c -5.119,-6.197 -12.678,-8.722 -19.016,-8.876 -12.677,-0.432 -23.526,5.798 -23.526,27.252 v 33.4 l 22.429,0.98 V -52.7 c 0,-7.437 4.267,-9.811 8.411,-9.629 5.363,0.234 10.361,3.744 10.361,11.667 v 32.059 l 22.186,0.969 z m -70.008,-4.2 -19.065,-0.835 -0.678,8.105 c -5.057,-6.842 -14.679,-10.833 -22.561,-11.321 -0.885,-0.044 -1.762,-0.067 -2.625,-0.067 -10.214,0 -18.864,3.121 -25.148,9.095 -7.006,6.66 -10.71,16.664 -10.71,28.93 0,23.824 15.234,39.778 38.811,40.644 8.974,0.412 17.292,-2.906 22.127,-8.578 l 0.458,7.804 19.391,0.847 z M -602.82,19.044 V -122.62 L 24.36,-98.371 V 43.293 Z" /></g><g
           transform="translate(733.0207,287.9731)"
           id="g40"><path
             id="path42"
             style="fill:#183efa;fill-opacity:1;fill-rule:nonzero;stroke:none"
             d="m 0,0 c -7.826,0 -14.193,-6.367 -14.193,-14.193 0,-7.827 6.367,-14.194 14.193,-14.194 7.826,0 14.194,6.367 14.194,14.194 C 14.194,-6.367 7.826,0 0,0 m 0,-32.418 c -10.049,0 -18.225,8.176 -18.225,18.225 0,10.049 8.176,18.224 18.225,18.224 10.049,0 18.225,-8.175 18.225,-18.224 0,-10.049 -8.176,-18.225 -18.225,-18.225" /></g><g
           transform="translate(730.4488,278.2693)"
           id="g44"><path
             id="path46"
             style="fill:#183efa;fill-opacity:1;fill-rule:nonzero;stroke:none"
             d="m 0,0 v -4.019 h 3.494 c 1.244,0 1.794,0.933 1.794,1.938 C 5.288,-1.029 4.69,0 3.446,0 Z M 10.767,-12.969 H 5.551 l -3.9,5.432 H 0 v -5.432 H -4.738 V 3.78 h 8.184 c 4.283,0 6.508,-2.751 6.508,-5.765 0,-2.059 -0.718,-3.806 -3.541,-5.05 l 4.354,-5.646 z" /></g><g
           transform="translate(166.8086,164.7386)"
           id="g48"><path
             id="path50"
             style="fill:#183efa;fill-opacity:1;fill-rule:nonzero;stroke:none"
             d="m 0,0 c -0.181,0 -0.362,-0.002 -0.543,-0.007 -6.82,0.275 -12.337,5.707 -12.743,12.493 0.01,0.268 0.015,0.537 0.015,0.807 l -0.04,3.773 h -7.545 v -3.773 c 0,-0.27 0.005,-0.539 0.015,-0.807 C -21.248,5.7 -26.764,0.268 -33.584,-0.007 -33.765,-0.002 -33.947,0 -34.127,0 L -37.9,-0.018 v -7.545 h 3.773 c 0.181,0 0.362,10e-4 0.543,0.006 6.821,-0.275 12.336,-5.707 12.743,-12.494 -0.01,-0.268 -0.015,-0.536 -0.015,-0.806 l 0.039,-3.773 h 7.546 v 3.773 c 0,0.27 -0.005,0.538 -0.015,0.806 0.406,6.787 5.922,12.219 12.743,12.494 0.181,-0.005 0.361,-0.006 0.543,-0.006 l 3.773,0.017 V 0 Z" /></g></g></g></g></svg>